<?xml version="1.0" standalone="no"?>
<!DOCTYPE svg PUBLIC "-//W3C//DTD SVG 20010904//EN"
 "http://www.w3.org/TR/2001/REC-SVG-20010904/DTD/svg10.dtd">
<svg version="1.0" xmlns="http://www.w3.org/2000/svg"
 width="296.000000pt" height="296.000000pt" viewBox="0 0 296.000000 296.000000"
 preserveAspectRatio="xMidYMid meet">
<metadata>
Created by potrace 1.11, written by Peter Selinger 2001-2013
</metadata>
<g transform="translate(0.000000,296.000000) scale(0.100000,-0.100000)"
fill="#000000" stroke="none">
<path d="M1455 2590 c-16 -4 -52 -13 -80 -20 -73 -17 -79 -25 -53 -71 18 -32
29 -41 60 -45 21 -4 38 -11 38 -16 0 -30 -35 -82 -74 -110 -34 -23 -43 -35
-35 -44 12 -15 3 -21 -39 -29 -24 -4 -42 1 -70 20 -22 14 -46 23 -55 20 -16
-7 -57 26 -57 45 0 5 11 17 24 25 32 21 42 73 18 95 -10 9 -31 20 -47 25 -27
7 -28 8 -10 16 14 6 10 7 -14 3 -19 -4 -40 -12 -47 -18 -7 -6 -28 -22 -46 -35
-43 -31 -80 -88 -73 -111 16 -49 85 -90 98 -57 3 7 6 5 6 -5 1 -27 -30 -98
-43 -98 -6 0 -5 -4 3 -9 11 -7 6 -16 -24 -43 -48 -42 -58 -45 -127 -44 -71 1
-96 22 -99 84 -2 23 -5 43 -8 43 -83 22 -168 -21 -201 -100 -11 -27 -10 -37 5
-71 22 -49 46 -58 84 -31 31 23 46 27 36 11 -3 -5 -2 -10 3 -10 5 0 35 -17 66
-37 54 -36 56 -39 56 -81 0 -46 -14 -82 -31 -82 -6 0 -25 -11 -42 -23 -18 -13
-45 -29 -62 -34 -16 -6 -39 -14 -50 -19 -39 -14 -46 -12 -72 27 -15 22 -34 39
-44 39 -32 0 -96 -74 -112 -128 -24 -80 -8 -117 62 -141 41 -13 91 3 91 30 0
24 80 14 149 -18 49 -24 53 -27 47 -54 -11 -55 -38 -81 -132 -125 -51 -24 -95
-44 -98 -44 -3 0 -13 16 -22 35 -19 40 -17 40 -64 17 -24 -12 -42 -31 -56 -62
l-21 -45 19 -58 c18 -52 26 -61 71 -87 47 -27 52 -28 64 -12 7 9 13 24 13 33
0 8 16 24 37 35 20 10 50 26 67 35 39 21 68 24 129 14 l47 -7 0 -47 c0 -71
-18 -122 -58 -163 -32 -34 -40 -37 -73 -32 -53 9 -79 -19 -79 -85 0 -61 32
-111 79 -125 31 -9 36 -7 57 20 13 16 24 36 24 44 0 16 86 104 130 134 36 24
82 20 109 -8 44 -47 20 -186 -32 -186 -13 0 -33 -9 -45 -20 -32 -30 -32 -128
0 -156 34 -30 69 -41 103 -33 17 4 23 8 15 9 -8 1 3 7 25 14 35 10 40 16 43
45 2 18 -2 46 -8 62 -13 30 -14 29 52 127 15 22 41 47 58 55 27 14 35 14 65 1
59 -24 88 -62 93 -121 l4 -53 -30 0 c-24 0 -32 -6 -42 -31 -15 -36 -9 -52 34
-83 23 -17 41 -21 107 -20 72 2 82 4 106 28 26 26 26 28 11 54 -9 15 -30 34
-48 42 -29 13 -31 17 -25 50 7 35 35 74 67 91 10 5 48 12 84 14 37 2 69 7 72
10 3 3 12 -1 21 -8 23 -20 51 -28 51 -15 0 6 11 -1 25 -16 14 -15 25 -31 25
-35 0 -4 -11 -18 -25 -31 -28 -26 -33 -66 -11 -95 11 -16 22 -17 79 -12 63 6
117 28 117 49 0 5 7 16 15 24 24 25 18 48 -17 63 -18 8 -42 15 -53 15 -35 2
-40 73 -8 123 20 30 77 62 121 67 20 3 58 9 85 15 40 9 50 8 67 -6 11 -10 20
-22 20 -28 0 -5 4 -26 10 -45 8 -28 14 -35 35 -35 14 0 25 3 25 8 0 4 11 12
25 17 48 18 86 145 53 178 -19 19 -73 14 -93 -8 -13 -14 -22 -17 -29 -10 -13
13 -11 167 2 183 5 7 12 25 16 42 4 16 18 40 31 52 12 13 28 36 34 51 7 16 25
36 40 45 29 17 29 17 40 -13 8 -25 16 -30 41 -30 25 0 35 8 60 47 26 40 29 53
24 92 -3 25 -6 57 -7 71 -3 40 -15 50 -58 50 -32 0 -41 -4 -51 -25 -6 -14 -15
-25 -19 -25 -5 0 -6 -7 -3 -15 11 -29 -13 -15 -46 26 -29 36 -33 49 -34 103
-1 86 9 142 34 176 23 32 39 37 58 18 9 -9 18 -9 36 0 32 14 47 77 23 95 -9 7
-22 36 -29 66 -11 47 -17 56 -41 62 -16 4 -35 5 -42 3 -12 -5 -29 -57 -26 -80
2 -14 -81 -44 -120 -44 -20 0 -37 12 -68 49 -23 27 -41 55 -41 63 0 8 -9 23
-20 33 -31 28 -24 67 25 143 1 1 15 -2 30 -8 16 -6 31 -7 34 -2 3 5 16 14 29
21 18 9 22 20 22 55 0 52 -26 90 -73 105 -38 13 -129 17 -145 7 -17 -10 -15
-42 4 -82 16 -33 16 -36 -5 -58 -12 -13 -59 -39 -105 -59 -87 -38 -116 -39
-184 -4 -33 16 -92 100 -98 139 -5 31 -3 34 29 46 18 7 38 22 44 35 17 38 0
61 -59 80 -60 19 -59 19 -103 7z m226 -420 c135 -35 267 -110 319 -182 17 -24
38 -47 46 -51 8 -4 14 -14 14 -21 0 -8 7 -19 16 -27 49 -40 62 -157 39 -339
-25 -193 -39 -226 -163 -368 -57 -65 -118 -101 -254 -152 -32 -12 -58 -25 -58
-29 0 -5 -46 -11 -102 -15 -272 -18 -527 60 -655 199 -77 82 -92 133 -95 308
-3 132 -1 144 20 178 12 20 22 50 22 66 0 49 37 118 113 213 80 100 129 134
267 189 65 26 106 35 175 40 188 13 214 12 296 -9z m-111 -1300 c0 -5 -5 -10
-11 -10 -5 0 -7 5 -4 10 3 6 8 10 11 10 2 0 4 -4 4 -10z"/>
</g>
</svg>
